<?xml version="1.0" standalone="no"?>
<!DOCTYPE svg PUBLIC "-//W3C//DTD SVG 20010904//EN"
 "http://www.w3.org/TR/2001/REC-SVG-20010904/DTD/svg10.dtd">
<svg version="1.0" xmlns="http://www.w3.org/2000/svg" viewBox="0 0 1124.000000 228.000000"
 preserveAspectRatio="xMidYMid meet">

<g transform="translate(0.000000,228.000000) scale(0.100000,-0.100000)"
fill="#ffffff" stroke="none">
<path d="M868 2261 c-81 -26 -135 -61 -195 -123 -82 -88 -123 -189 -123 -308
0 -118 41 -220 123 -307 l50 -53 -45 -48 c-91 -97 -128 -194 -128 -331 1 -147
40 -226 202 -411 102 -117 174 -216 200 -280 32 -76 62 -74 97 6 29 65 94 156
188 262 113 128 139 164 177 242 30 62 31 70 31 190 0 125 0 127 -37 201 -20
41 -58 96 -84 122 l-46 47 50 53 c133 141 160 344 70 521 -27 53 -112 142
-166 173 -106 62 -252 80 -364 44z m198 -206 c208 -62 226 -358 27 -442 -40
-16 -143 -17 -180 -1 -92 40 -145 119 -145 218 0 107 63 194 162 225 59 18 76
18 136 0z m51 -745 c210 -120 125 -434 -117 -434 -199 0 -307 220 -185 380 66
86 203 111 302 54z"/>
<path d="M1968 2261 c-81 -26 -135 -61 -195 -123 -82 -88 -123 -189 -123 -308
0 -118 41 -220 123 -307 l50 -53 -45 -48 c-91 -97 -128 -194 -128 -331 1 -147
40 -226 202 -411 102 -117 174 -216 200 -280 32 -76 62 -74 97 6 29 65 94 156
188 262 113 128 139 164 177 242 30 62 31 70 31 190 0 125 0 127 -37 201 -20
41 -58 96 -84 122 l-46 47 50 53 c133 141 160 344 70 521 -27 53 -112 142
-166 173 -106 62 -252 80 -364 44z m198 -206 c208 -62 226 -358 27 -442 -40
-16 -143 -17 -180 -1 -92 40 -145 119 -145 218 0 107 63 194 162 225 59 18 76
18 136 0z m51 -745 c210 -120 125 -434 -117 -434 -199 0 -307 220 -185 380 66
86 203 111 302 54z"/>
<path d="M3825 2090 c-173 -37 -296 -141 -326 -275 -6 -29 -10 -89 -7 -133 6
-108 46 -191 126 -262 54 -48 101 -74 340 -186 73 -34 115 -60 142 -90 46 -50
54 -76 48 -145 -12 -121 -121 -178 -313 -165 -93 6 -235 40 -317 75 l-48 20 0
-114 0 -114 55 -20 c132 -50 365 -66 512 -35 207 42 334 172 349 354 16 191
-63 310 -273 411 -57 27 -150 71 -207 99 -115 55 -158 95 -177 162 -14 52 1
121 34 156 74 79 228 87 430 22 55 -17 100 -30 101 -28 2 2 19 44 38 95 l36
91 -47 20 c-96 42 -202 63 -331 67 -69 2 -143 0 -165 -5z"/>
<path d="M4963 1735 c-142 -44 -249 -170 -288 -338 -22 -97 -29 -222 -16 -325
35 -283 187 -442 425 -442 123 0 215 38 287 117 l35 39 -4 -308 -5 -308 122 0
121 0 0 780 0 780 -99 0 -99 0 -7 -52 c-4 -29 -11 -62 -15 -72 -6 -19 -8 -18
-25 7 -27 42 -110 98 -176 118 -71 22 -193 24 -256 4z m314 -204 c53 -26 87
-68 110 -133 15 -43 18 -84 18 -223 0 -163 -1 -172 -26 -226 -46 -97 -119
-134 -250 -127 -89 5 -132 28 -174 89 -75 114 -83 371 -16 515 29 62 69 102
126 123 45 16 165 6 212 -18z"/>
<path d="M7520 1731 c-84 -19 -187 -54 -204 -71 -7 -7 44 -139 64 -162 3 -4
38 6 77 22 138 55 294 66 351 23 53 -39 67 -69 70 -152 l4 -78 -154 -6 c-235
-11 -359 -46 -441 -125 -61 -58 -80 -104 -85 -203 -6 -116 13 -181 73 -247 61
-67 124 -94 239 -100 153 -8 256 28 342 120 27 29 46 43 49 35 3 -6 13 -39 23
-72 l18 -60 87 -3 87 -3 0 373 c0 205 -5 402 -10 438 -21 133 -85 214 -207
260 -83 32 -265 37 -383 11z m358 -663 c-5 -100 -17 -134 -64 -182 -71 -70
-207 -98 -296 -59 -114 51 -104 228 16 290 43 23 158 41 260 42 l88 1 -4 -92z"/>
<path d="M8881 1735 c-66 -20 -147 -81 -191 -142 -21 -30 -40 -50 -43 -46 -2
4 -10 47 -17 96 l-12 87 -94 0 -94 0 0 -540 0 -540 120 0 120 0 0 318 c0 176
4 333 10 352 25 90 110 179 193 201 22 6 77 10 122 10 l82 -1 11 102 c8 79 8
104 -1 110 -20 13 -159 8 -206 -7z"/>
<path d="M9603 1735 c-109 -30 -201 -98 -264 -196 -105 -164 -117 -462 -27
-647 64 -129 199 -227 350 -252 141 -24 331 -4 461 47 l37 15 0 94 c0 52 -2
94 -5 94 -2 0 -28 -9 -56 -21 -87 -34 -175 -50 -283 -51 -85 0 -110 3 -154 22
-93 40 -150 125 -168 253 l-6 47 361 0 361 0 0 98 c-1 272 -111 441 -325 497
-73 19 -212 18 -282 0z m278 -200 c50 -35 85 -99 95 -173 l7 -52 -242 0 -241
0 0 25 c0 45 42 137 79 174 48 48 88 60 183 58 67 -2 82 -6 119 -32z"/>
<path d="M10722 1739 c-70 -13 -157 -58 -200 -102 -48 -49 -72 -109 -72 -181
0 -143 70 -225 260 -307 250 -108 293 -135 304 -194 10 -49 -16 -99 -62 -122
-30 -14 -60 -18 -157 -17 -111 0 -128 3 -228 37 -60 20 -111 37 -113 37 -2 0
-4 -44 -4 -99 l0 -98 43 -16 c84 -31 124 -38 247 -44 157 -7 248 7 340 53 117
59 160 132 160 271 0 166 -63 233 -315 333 -135 54 -213 98 -230 129 -70 136
121 193 367 111 50 -17 92 -29 93 -28 6 7 75 172 72 173 -13 11 -129 47 -190
59 -81 17 -243 20 -315 5z"/>
<path d="M5950 1363 c0 -203 5 -397 10 -433 14 -84 61 -181 108 -220 69 -57
132 -74 273 -75 125 0 125 0 201 38 48 23 90 53 111 78 19 22 37 37 40 32 2
-4 10 -36 17 -70 l13 -63 93 0 94 0 0 540 0 540 -120 0 -120 0 0 -328 c0 -360
-6 -412 -58 -487 -42 -61 -100 -88 -197 -93 -103 -4 -157 20 -195 88 l-25 45
-3 388 -3 387 -120 0 -119 0 0 -367z"/>
<path d="M312 671 c-52 -85 -314 -642 -309 -655 6 -15 152 -16 1549 -14 1535
3 1543 3 1545 23 1 11 -71 166 -160 345 l-162 325 -145 3 -145 3 -62 -68 -63
-68 169 -3 168 -2 102 -210 c55 -115 101 -212 101 -215 0 -3 -607 -5 -1350 -5
-742 0 -1350 2 -1350 5 0 2 46 99 101 215 l102 210 168 2 168 3 -60 68 -61 67
-144 0 -144 0 -18 -29z"/>
</g>
</svg>
